<?xml version="1.0" encoding="utf-8"?>
<!-- Generator: Adobe Illustrator 15.0.0, SVG Export Plug-In . SVG Version: 6.00 Build 0)  -->
<!DOCTYPE svg PUBLIC "-//W3C//DTD SVG 1.0//EN" "http://www.w3.org/TR/2001/REC-SVG-20010904/DTD/svg10.dtd">
<svg version="1.0" id="Слой_1" xmlns="http://www.w3.org/2000/svg" xmlns:xlink="http://www.w3.org/1999/xlink" x="0px" y="0px"
	 width="2000px" height="2000px" viewBox="0 0 2000 2000" enable-background="new 0 0 2000 2000" xml:space="preserve">
<g>
	<g>
		<g>
			<path fill="#697C8C" d="M1443.594,356.133l-141.27,70.957c-14.102,7.119-26.309,27.002-26.309,42.627v285.371
				c0,0,0,0.078,0,0.156v219.668l139.18-69.805c18.184-9.17,33.066-33.34,33.066-53.662V377.119
				C1448.262,370.303,1446.484,363.096,1443.594,356.133z M763.281,405.361c0.078-0.117,235.82-118.34,407.617-204.473
				l-137.832-69.131c-18.252-9.16-48.008-9.16-66.152,0L584.785,323.398c-5.449,2.744-10.508,6.934-15.049,11.855l138.916,69.766
				C723.213,412.285,748.477,412.363,763.281,405.361z M1430.244,335.254c-4.531-4.922-9.609-9.111-15.049-11.855l-216.777-108.721
				l-170.869,85.713l208.506,104.629c0.059,0,0.059,0,0.137,0c14.697,7.344,40.371,7.344,55.029,0L1430.244,335.254z
				 M723.965,469.717c0-15.625-12.285-35.508-26.309-42.627l-141.27-70.957c-2.891,6.953-4.668,14.17-4.668,20.986v271.943
				l172.246,86.143V469.717z M1012.324,924.57v177.861c0,0.01,0,0.01,0,0.02c7.559-1.045,14.824-2.705,20.742-5.693l218.252-109.463
				V775.293l-212.764,106.641C1024.639,888.975,1012.324,908.945,1012.324,924.57z M987.646,924.57
				c0-15.625-12.305-35.596-26.309-42.637L551.719,676.836v174.609c0,20.322,14.883,44.492,33.066,53.662l382.129,191.65
				c5.908,2.998,13.174,4.648,20.742,5.703c0-0.01-0.01-0.02-0.01-0.029V924.57z"/>
			<path fill="#FA6060" d="M972.383,859.951c14.756,7.354,40.459,7.354,55.166,0l198.047-99.463
				c3.027-1.465,5.859-3.652,8.535-6.182l-234.189-117.48l-234.18,117.48c2.598,2.451,5.43,4.551,8.232,6.104L972.383,859.951z
				 M1012.324,615.332l235.723,118.34c2.061-5.205,3.271-10.488,3.271-15.41V469.727c0-15.635-12.285-35.518-26.309-42.637
				l-197.461-99.082c-4.307-2.119-9.629-3.652-15.225-4.609V615.332z M748.564,718.262c0,4.922,1.26,10.205,3.359,15.41
				l235.723-118.34V323.398c-5.322,0.859-10.322,2.324-14.531,4.268L774.893,427.09c-0.186,0.078-0.352,0.234-0.576,0.381
				c-13.75,7.168-25.752,26.777-25.752,42.256V718.262z"/>
		</g>
		<rect fill="none" width="2000" height="2000"/>
	</g>
	<g>
		<path fill="#697C8C" d="M666.25,1459.297c0,1.172-0.225,2.207-0.664,3.086s-1.396,1.602-2.852,2.188
			c-1.475,0.586-3.516,1.035-6.152,1.328s-6.152,0.43-10.547,0.43c-3.818,0-6.924-0.137-9.346-0.43
			c-2.412-0.293-4.355-0.771-5.82-1.436c-1.465-0.654-2.598-1.572-3.408-2.744c-0.801-1.172-1.504-2.637-2.09-4.395l-26.143-67.012
			c-3.076-7.617-6.26-14.619-9.561-20.986c-3.291-6.377-7.217-11.865-11.758-16.484c-4.541-4.609-9.883-8.193-16.035-10.762
			s-13.555-3.848-22.188-3.848h-25.273v121.064c0,1.172-0.332,2.207-0.986,3.086c-0.664,0.879-1.689,1.572-3.076,2.08
			c-1.396,0.518-3.301,0.947-5.713,1.318c-2.422,0.371-5.459,0.547-9.121,0.547s-6.699-0.176-9.121-0.547
			c-2.412-0.371-4.355-0.801-5.82-1.318c-1.465-0.508-2.49-1.201-3.076-2.08s-0.879-1.914-0.879-3.086v-263.223
			c0-5.723,1.504-9.707,4.502-11.982c3.008-2.266,6.191-3.408,9.561-3.408h60.43c7.168,0,13.145,0.195,17.9,0.557
			c4.766,0.361,9.043,0.771,12.861,1.201c10.977,1.914,20.684,4.912,29.111,9.014c8.418,4.102,15.488,9.307,21.201,15.596
			c5.713,6.309,10,13.516,12.852,21.65c2.861,8.125,4.287,17.1,4.287,26.914c0,9.521-1.279,18.057-3.848,25.596
			c-2.559,7.549-6.26,14.219-11.094,20s-10.625,10.801-17.354,15.049c-6.748,4.248-14.287,7.842-22.637,10.771
			c4.688,2.051,8.936,4.648,12.744,7.793c3.809,3.154,7.363,6.924,10.654,11.318c3.301,4.395,6.406,9.443,9.336,15.166
			c2.93,5.703,5.859,12.148,8.789,19.336l25.488,62.617c2.051,5.273,3.369,8.975,3.965,11.094
			C665.947,1456.484,666.25,1458.125,666.25,1459.297z M609.336,1259.57c0-11.133-2.49-20.547-7.471-28.232
			c-4.98-7.695-13.33-13.223-25.049-16.592c-3.662-1.025-7.803-1.758-12.412-2.197c-4.619-0.439-10.654-0.654-18.135-0.654h-31.855
			v95.801h36.914c9.961,0,18.564-1.211,25.82-3.633c7.246-2.412,13.291-5.781,18.125-10.107c4.834-4.316,8.389-9.404,10.654-15.264
			C608.203,1272.832,609.336,1266.455,609.336,1259.57z"/>
		<path fill="#697C8C" d="M877.617,1352.07c0,5.723-1.426,9.785-4.297,12.197c-2.871,2.422-6.143,3.623-9.824,3.623H733.262
			c0,10.996,1.104,20.879,3.311,29.668s5.889,16.328,11.045,22.637c5.146,6.289,11.846,11.133,20.088,14.492
			c8.242,3.379,18.33,5.059,30.244,5.059c9.424,0,17.813-0.771,25.176-2.305c7.363-1.543,13.721-3.262,19.102-5.166
			c5.371-1.904,9.785-3.623,13.242-5.166c3.467-1.533,6.074-2.305,7.842-2.305c1.035,0,1.953,0.254,2.754,0.771
			c0.811,0.518,1.436,1.279,1.885,2.305c0.439,1.025,0.771,2.451,0.986,4.287c0.225,1.836,0.342,4.063,0.342,6.699
			c0,1.904-0.078,3.555-0.225,4.941c-0.146,1.396-0.332,2.637-0.547,3.74c-0.225,1.094-0.586,2.08-1.104,2.959
			c-0.508,0.879-1.172,1.729-1.973,2.529c-0.811,0.811-3.184,2.129-7.148,3.955c-3.945,1.836-9.082,3.633-15.371,5.391
			c-6.309,1.758-13.594,3.32-21.865,4.717c-8.281,1.396-17.109,2.09-26.475,2.09c-16.27,0-30.508-2.275-42.744-6.807
			c-12.227-4.551-22.52-11.289-30.869-20.215c-8.35-8.945-14.648-20.146-18.896-33.623s-6.377-29.15-6.377-47.021
			c0-16.992,2.207-32.266,6.602-45.811s10.723-25.049,19.004-34.502c8.271-9.443,18.271-16.699,29.99-21.748
			c11.719-5.059,24.834-7.588,39.326-7.588c15.527,0,28.75,2.5,39.668,7.48c10.908,4.98,19.883,11.68,26.914,20.098
			c7.031,8.428,12.197,18.32,15.488,29.668c3.301,11.348,4.941,23.477,4.941,36.367V1352.07z M841.152,1341.309
			c0.43-19.043-3.809-33.984-12.715-44.824c-8.916-10.84-22.148-16.26-39.688-16.26c-8.984,0-16.875,1.689-23.652,5.049
			c-6.777,3.379-12.451,7.842-17.021,13.408s-8.105,12.051-10.615,19.443c-2.51,7.402-3.906,15.127-4.199,23.184H841.152z"/>
		<path fill="#697C8C" d="M1103.066,1459.521c0,1.172-0.293,2.158-0.879,2.969s-1.543,1.494-2.852,2.08
			c-1.328,0.586-3.154,1.035-5.498,1.328s-5.273,0.43-8.789,0.43c-3.662,0-6.67-0.137-9.014-0.43s-4.17-0.742-5.488-1.328
			s-2.275-1.27-2.852-2.08c-0.596-0.811-0.879-1.797-0.879-2.969V1343.73c0-11.289-0.879-20.371-2.637-27.246
			c-1.758-6.895-4.326-12.822-7.695-17.803s-7.725-8.789-13.076-11.426c-5.342-2.637-11.533-3.955-18.564-3.955
			c-9.082,0-18.164,3.223-27.246,9.668s-18.604,15.898-28.564,28.34v138.213c0,1.172-0.293,2.158-0.879,2.969
			s-1.533,1.494-2.861,2.08c-1.309,0.586-3.145,1.035-5.488,1.328s-5.352,0.43-9.004,0.43c-3.516,0-6.455-0.137-8.789-0.43
			c-2.354-0.293-4.219-0.742-5.605-1.328c-1.396-0.586-2.344-1.27-2.861-2.08c-0.508-0.811-0.771-1.797-0.771-2.969v-197.754
			c0-1.172,0.225-2.158,0.664-2.969c0.439-0.801,1.318-1.533,2.637-2.197c1.318-0.654,2.998-1.094,5.059-1.318
			c2.041-0.215,4.756-0.322,8.125-0.322c3.223,0,5.898,0.107,8.018,0.322c2.129,0.225,3.77,0.664,4.951,1.318
			c1.162,0.664,2.012,1.396,2.52,2.197c0.518,0.811,0.771,1.797,0.771,2.969v26.143c11.133-12.441,22.227-21.563,33.291-27.354
			c11.055-5.781,22.227-8.682,33.506-8.682c13.184,0,24.277,2.246,33.291,6.709c9.004,4.463,16.289,10.439,21.855,17.9
			c5.566,7.48,9.561,16.23,11.982,26.26c2.412,10.039,3.623,22.08,3.623,36.143V1459.521z"/>
		<path fill="#697C8C" d="M1334.434,1270.781c0,5.117-0.693,8.828-2.08,11.094c-1.396,2.266-3.193,3.398-5.381,3.398h-28.35
			c5.127,5.273,8.711,11.104,10.771,17.471c2.041,6.377,3.066,12.998,3.066,19.893c0,11.426-1.826,21.523-5.488,30.313
			s-8.896,16.23-15.713,22.305c-6.807,6.084-14.902,10.732-24.277,13.955s-19.775,4.834-31.201,4.834
			c-8.057,0-15.713-1.055-22.959-3.184c-7.256-2.129-12.861-4.805-16.807-8.027c-2.637,2.637-4.805,5.645-6.484,9.014
			c-1.689,3.369-2.529,7.256-2.529,11.65c0,5.117,2.383,9.375,7.139,12.734c4.766,3.379,11.094,5.205,19.004,5.498l51.641,2.197
			c9.814,0.293,18.818,1.65,27.031,4.063c8.193,2.422,15.303,5.859,21.309,10.332s10.693,9.961,14.063,16.475
			c3.369,6.523,5.059,14.102,5.059,22.744c0,9.082-1.914,17.725-5.723,25.928s-9.629,15.42-17.461,21.641
			c-7.842,6.23-17.842,11.133-30,14.727c-12.158,3.584-26.514,5.381-43.066,5.381c-15.967,0-29.551-1.357-40.752-4.063
			c-11.211-2.715-20.4-6.416-27.578-11.094c-7.178-4.688-12.383-10.293-15.596-16.816c-3.232-6.523-4.844-13.584-4.844-21.201
			c0-4.834,0.586-9.521,1.758-14.063s2.969-8.857,5.391-12.959c2.412-4.102,5.42-8.027,9.004-11.758
			c3.594-3.74,7.725-7.441,12.422-11.094c-7.188-3.672-12.49-8.281-15.938-13.848c-3.438-5.566-5.156-11.572-5.156-18.018
			c0-8.936,1.826-16.924,5.488-23.955s8.203-13.32,13.623-18.887c-4.541-5.43-8.135-11.543-10.771-18.35
			c-2.637-6.816-3.945-15.049-3.945-24.717c0-11.289,1.895-21.387,5.703-30.332c3.809-8.926,9.082-16.475,15.82-22.627
			s14.834-10.879,24.287-14.17c9.443-3.301,19.736-4.941,30.869-4.941c6.006,0,11.611,0.322,16.807,0.986
			c5.205,0.654,10.068,1.572,14.619,2.744h59.766c2.48,0,4.355,1.211,5.596,3.623
			C1333.818,1262.1,1334.434,1265.801,1334.434,1270.781z M1295.986,1479.512c0-8.496-3.477-15.049-10.439-19.658
			c-6.953-4.619-16.367-7.07-28.232-7.363l-51.201-1.758c-4.688,3.662-8.525,7.139-11.533,10.439
			c-2.998,3.291-5.381,6.445-7.139,9.443s-2.969,5.967-3.623,8.896c-0.664,2.93-0.986,5.938-0.986,9.014
			c0,9.521,4.824,16.729,14.492,21.641s23.145,7.363,40.43,7.363c10.996,0,20.186-1.064,27.578-3.184
			c7.402-2.129,13.369-4.951,17.91-8.467s7.803-7.539,9.775-12.08C1295,1489.258,1295.986,1484.492,1295.986,1479.512z
			 M1277.754,1322.852c0-13.477-3.701-23.984-11.104-31.533c-7.393-7.539-17.9-11.318-31.533-11.318
			c-7.031,0-13.145,1.172-18.34,3.516c-5.205,2.344-9.521,5.566-12.969,9.668c-3.438,4.102-6.006,8.828-7.686,14.18
			c-1.689,5.352-2.529,10.947-2.529,16.807c0,13.037,3.701,23.291,11.094,30.762c7.402,7.471,17.764,11.201,31.094,11.201
			c7.178,0,13.398-1.133,18.672-3.398s9.639-5.42,13.076-9.453c3.447-4.023,6.006-8.672,7.695-13.945
			C1276.904,1334.063,1277.754,1328.564,1277.754,1322.852z"/>
		<path fill="#697C8C" d="M1521.641,1459.746c0,1.758-0.596,3.066-1.758,3.945c-1.182,0.879-2.793,1.543-4.844,1.982
			s-5.049,0.654-9.004,0.654c-3.809,0-6.846-0.215-9.121-0.654c-2.266-0.439-3.916-1.104-4.941-1.982s-1.543-2.188-1.543-3.945
			v-19.785c-8.643,9.238-18.271,16.406-28.887,21.543c-10.625,5.117-21.865,7.686-33.73,7.686c-10.4,0-19.814-1.357-28.232-4.063
			c-8.428-2.705-15.605-6.631-21.533-11.758c-5.938-5.127-10.547-11.426-13.848-18.896c-3.291-7.471-4.941-15.967-4.941-25.488
			c0-11.133,2.266-20.801,6.816-29.004c4.531-8.203,11.055-15.02,19.551-20.43c8.496-5.43,18.896-9.492,31.201-12.197
			s26.143-4.072,41.533-4.072h27.246v-15.371c0-7.617-0.811-14.355-2.422-20.215s-4.209-10.732-7.803-14.619
			c-3.584-3.877-8.232-6.807-13.955-8.789c-5.703-1.973-12.734-2.959-21.094-2.959c-8.936,0-16.953,1.055-24.053,3.184
			c-7.109,2.129-13.33,4.473-18.682,7.031c-5.342,2.559-9.814,4.902-13.398,7.031c-3.594,2.129-6.27,3.184-8.027,3.184
			c-1.172,0-2.188-0.293-3.066-0.879s-1.65-1.465-2.314-2.637c-0.654-1.172-1.133-2.676-1.426-4.502s-0.439-3.848-0.439-6.045
			c0-3.662,0.254-6.553,0.771-8.682c0.508-2.119,1.758-4.131,3.73-6.045c1.982-1.895,5.381-4.131,10.225-6.699
			c4.824-2.559,10.391-4.902,16.699-7.031c6.289-2.119,13.184-3.877,20.645-5.273c7.48-1.387,15.02-2.09,22.637-2.09
			c14.209,0,26.289,1.621,36.25,4.844s18.027,7.949,24.18,14.17s10.615,13.955,13.398,23.174c2.783,9.238,4.18,20,4.18,32.305
			V1459.746z M1485.605,1369.434h-30.986c-9.961,0-18.604,0.84-25.928,2.529s-13.398,4.17-18.242,7.471
			c-4.824,3.291-8.379,7.246-10.654,11.865c-2.266,4.609-3.408,9.922-3.408,15.928c0,10.254,3.262,18.418,9.785,24.502
			c6.514,6.084,15.635,9.111,27.354,9.111c9.521,0,18.35-2.412,26.475-7.246c8.135-4.834,16.66-12.227,25.605-22.188V1369.434z"/>
		<path fill="#697C8C" d="M1571.807,1205.293c0,3.73-0.693,7.227-2.08,10.488c-1.396,3.262-3.301,6.084-5.713,8.477
			s-5.264,4.277-8.545,5.674s-6.787,2.08-10.527,2.08c-3.877,0-7.441-0.664-10.703-2.012c-3.252-1.348-6.055-3.184-8.398-5.537
			c-2.354-2.354-4.189-5.137-5.508-8.369c-1.318-3.242-1.982-6.797-1.982-10.664c0-3.74,0.693-7.227,2.08-10.469
			c1.396-3.232,3.301-6.045,5.713-8.438s5.254-4.277,8.506-5.645c3.262-1.367,6.787-2.051,10.566-2.051
			c3.877,0,7.441,0.664,10.703,1.992c3.252,1.318,6.055,3.145,8.398,5.498c2.354,2.354,4.189,5.137,5.508,8.369
			C1571.143,1197.93,1571.807,1201.465,1571.807,1205.293z M1565.654,1205.703c0-3.242-0.518-6.182-1.533-8.828
			c-1.035-2.637-2.451-4.902-4.277-6.797s-3.984-3.34-6.494-4.336c-2.51-1.006-5.215-1.504-8.135-1.504
			c-3.145,0-5.977,0.547-8.516,1.641c-2.52,1.094-4.697,2.598-6.523,4.512s-3.223,4.131-4.199,6.66
			c-0.986,2.529-1.475,5.234-1.475,8.105c0,3.184,0.518,6.104,1.533,8.75c1.035,2.637,2.451,4.902,4.277,6.797
			s3.984,3.35,6.494,4.375s5.215,1.543,8.135,1.543c3.145,0,5.996-0.566,8.545-1.68s4.727-2.617,6.533-4.512
			c1.797-1.895,3.184-4.102,4.16-6.631C1565.166,1211.27,1565.654,1208.574,1565.654,1205.703z M1557.588,1218.203
			c0,0.186-0.029,0.352-0.107,0.518c-0.059,0.166-0.234,0.273-0.508,0.342s-0.664,0.127-1.162,0.176
			c-0.498,0.039-1.182,0.059-2.051,0.059c-0.771,0-1.396-0.02-1.885-0.059c-0.469-0.049-0.859-0.137-1.152-0.244
			c-0.303-0.107-0.527-0.273-0.684-0.479c-0.166-0.205-0.293-0.488-0.381-0.859l-1.436-4.707c-0.547-1.689-1.191-2.871-1.953-3.525
			c-0.742-0.654-1.875-0.986-3.379-0.986h-1.846v9.57c0,0.498-0.195,0.84-0.576,1.016c-0.391,0.186-1.289,0.273-2.705,0.273
			s-2.344-0.088-2.803-0.273c-0.459-0.176-0.684-0.518-0.684-1.016v-24.551c0-0.996,0.254-1.777,0.752-2.354s1.25-0.85,2.256-0.85
			h7.861c1.826,0,3.428,0.156,4.814,0.469c1.396,0.322,2.578,0.82,3.555,1.504c0.986,0.684,1.729,1.543,2.227,2.568
			s0.752,2.246,0.752,3.662c0,2.188-0.596,3.887-1.777,5.088s-2.783,2.061-4.785,2.568c1.094,0.361,2.119,0.977,3.076,1.836
			c0.957,0.869,1.777,2.168,2.461,3.906l1.641,4.375C1557.432,1217.275,1557.588,1217.93,1557.588,1218.203z M1549.111,1199.277
			c0-0.508-0.068-0.986-0.205-1.445c-0.137-0.449-0.4-0.85-0.781-1.191c-0.391-0.342-0.908-0.605-1.543-0.781
			c-0.635-0.186-1.436-0.273-2.393-0.273h-3.145v7.656h3.008c1.914,0,3.232-0.371,3.965-1.094
			C1548.75,1201.416,1549.111,1200.459,1549.111,1199.277z"/>
	</g>
	<g>
		<path fill="#FA6060" d="M571.611,1625.293c0,6.953-1.143,13.223-3.438,18.809s-5.566,10.352-9.834,14.277
			c-4.258,3.945-9.482,6.992-15.684,9.141c-6.191,2.148-13.584,3.223-22.178,3.223h-15.791v50.059c0,0.566-0.156,1.074-0.488,1.504
			c-0.313,0.43-0.82,0.762-1.504,1.016c-0.674,0.254-1.602,0.469-2.793,0.645c-1.172,0.176-2.666,0.273-4.453,0.273
			s-3.281-0.098-4.453-0.273c-1.191-0.176-2.139-0.391-2.852-0.645s-1.221-0.586-1.504-1.016s-0.43-0.938-0.43-1.504v-128.262
			c0-2.871,0.752-4.902,2.256-6.133c1.504-1.211,3.184-1.816,5.049-1.816h29.756c3.008,0,5.889,0.117,8.643,0.371
			c2.764,0.254,6.016,0.791,9.785,1.611c3.75,0.83,7.588,2.363,11.484,4.619c3.906,2.256,7.217,5.039,9.941,8.32
			c2.725,3.301,4.814,7.109,6.289,11.445C570.879,1615.293,571.611,1620.078,571.611,1625.293z M552.168,1626.797
			c0-5.645-1.055-10.371-3.164-14.18c-2.119-3.789-4.727-6.621-7.852-8.477c-3.105-1.865-6.328-3.047-9.668-3.555
			c-3.32-0.488-6.563-0.742-9.717-0.742h-17.08v55.742h16.65c5.586,0,10.225-0.703,13.916-2.148
			c3.682-1.426,6.777-3.418,9.287-5.957s4.404-5.586,5.693-9.131S552.168,1630.957,552.168,1626.797z"/>
		<path fill="#FA6060" d="M654.326,1630.566c0,1.572-0.039,2.891-0.107,3.965s-0.215,1.924-0.43,2.529
			c-0.215,0.615-0.488,1.074-0.801,1.396c-0.332,0.322-0.771,0.488-1.348,0.488s-1.27-0.166-2.09-0.488
			c-0.83-0.322-1.758-0.645-2.793-0.967c-1.045-0.322-2.207-0.625-3.496-0.908c-1.289-0.293-2.686-0.43-4.189-0.43
			c-1.787,0-3.545,0.352-5.264,1.074c-1.719,0.713-3.525,1.895-5.43,3.535c-1.895,1.66-3.877,3.838-5.957,6.563
			c-2.08,2.715-4.365,6.055-6.875,9.98v63.594c0,0.586-0.146,1.064-0.43,1.455c-0.283,0.4-0.752,0.732-1.396,1.025
			c-0.645,0.273-1.543,0.488-2.686,0.645c-1.143,0.137-2.617,0.215-4.404,0.215c-1.719,0-3.154-0.078-4.297-0.215
			c-1.143-0.156-2.061-0.371-2.744-0.645c-0.674-0.293-1.143-0.625-1.387-1.025c-0.254-0.391-0.381-0.869-0.381-1.455v-96.68
			c0-0.566,0.107-1.055,0.322-1.445s0.645-0.752,1.289-1.074s1.465-0.537,2.471-0.645s2.324-0.156,3.975-0.156
			c1.572,0,2.881,0.049,3.926,0.156c1.035,0.107,1.836,0.322,2.412,0.645s0.986,0.684,1.24,1.074
			c0.244,0.391,0.371,0.879,0.371,1.445v14.082c2.646-3.867,5.137-7.021,7.461-9.453c2.334-2.441,4.531-4.355,6.611-5.752
			s4.131-2.363,6.182-2.9c2.031-0.537,4.092-0.801,6.172-0.801c0.928,0,1.992,0.049,3.164,0.156
			c1.191,0.107,2.422,0.313,3.711,0.586c1.289,0.293,2.451,0.615,3.496,0.977c1.035,0.352,1.768,0.713,2.197,1.074
			c0.43,0.352,0.713,0.693,0.859,1.016s0.264,0.742,0.381,1.23c0.098,0.508,0.176,1.24,0.215,2.207
			C654.307,1627.607,654.326,1628.916,654.326,1630.566z"/>
		<path fill="#FA6060" d="M760.889,1671.484c0,7.891-1.035,15.137-3.115,21.758s-5.176,12.344-9.297,17.129
			c-4.111,4.805-9.268,8.545-15.469,11.23c-6.191,2.686-13.369,4.023-21.533,4.023c-7.949,0-14.873-1.172-20.791-3.535
			c-5.898-2.363-10.83-5.801-14.766-10.313s-6.875-10-8.809-16.445s-2.9-13.75-2.9-21.914c0-7.871,1.025-15.117,3.057-21.748
			c2.051-6.621,5.127-12.334,9.238-17.139c4.121-4.785,9.258-8.516,15.42-11.172c6.162-2.637,13.359-3.965,21.592-3.965
			c7.949,0,14.883,1.172,20.781,3.535c5.918,2.363,10.84,5.801,14.775,10.313s6.895,10,8.857,16.445
			C759.902,1656.133,760.889,1663.398,760.889,1671.484z M742.52,1672.676c0-5.234-0.488-10.176-1.465-14.824
			c-0.977-4.658-2.588-8.74-4.824-12.246c-2.236-3.516-5.273-6.289-9.102-8.33s-8.604-3.057-14.307-3.057
			c-5.283,0-9.814,0.928-13.604,2.793c-3.799,1.855-6.924,4.492-9.375,7.891c-2.461,3.398-4.287,7.432-5.479,12.09
			c-1.191,4.648-1.787,9.736-1.787,15.254c0,5.293,0.488,10.273,1.465,14.922c0.977,4.668,2.598,8.73,4.873,12.197
			c2.275,3.477,5.332,6.23,9.16,8.271s8.604,3.066,14.307,3.066c5.205,0,9.717-0.938,13.555-2.793
			c3.828-1.865,6.973-4.473,9.424-7.852c2.461-3.359,4.268-7.363,5.42-12.031C741.943,1683.379,742.52,1678.262,742.52,1672.676z"/>
		<path fill="#FA6060" d="M839.951,1584.473c0,1.367-0.068,2.461-0.215,3.281s-0.303,1.484-0.479,1.992
			c-0.186,0.498-0.42,0.84-0.703,1.016s-0.645,0.273-1.074,0.273c-0.498,0-1.133-0.166-1.875-0.488
			c-0.762-0.322-1.67-0.684-2.744-1.074s-2.344-0.752-3.818-1.074c-1.465-0.322-3.164-0.488-5.098-0.488
			c-2.646,0-4.902,0.43-6.768,1.289s-3.369,2.207-4.512,4.033s-1.973,4.189-2.471,7.09s-0.752,6.436-0.752,10.576v10.527h21.592
			c0.576,0,1.055,0.137,1.445,0.381c0.4,0.254,0.762,0.684,1.074,1.289c0.332,0.615,0.576,1.377,0.762,2.314
			c0.176,0.928,0.264,2.07,0.264,3.438c0,2.578-0.322,4.434-0.967,5.586c-0.645,1.143-1.504,1.719-2.578,1.719h-21.592v84.746
			c0,0.586-0.146,1.064-0.43,1.455c-0.283,0.4-0.771,0.732-1.455,1.025c-0.674,0.273-1.592,0.488-2.734,0.645
			c-1.143,0.137-2.578,0.215-4.297,0.215s-3.154-0.078-4.297-0.215c-1.143-0.156-2.061-0.371-2.734-0.645
			c-0.684-0.293-1.172-0.625-1.455-1.025c-0.283-0.391-0.43-0.869-0.43-1.455v-84.746h-13.643c-1.143,0-2.002-0.576-2.578-1.719
			c-0.576-1.152-0.859-3.008-0.859-5.586c0-1.367,0.068-2.51,0.215-3.438c0.146-0.938,0.361-1.699,0.645-2.314
			c0.283-0.605,0.645-1.035,1.074-1.289c0.43-0.244,0.928-0.381,1.504-0.381h13.643v-9.98c0-6.738,0.625-12.52,1.885-17.354
			c1.25-4.834,3.164-8.789,5.742-11.865c2.578-3.086,5.82-5.352,9.727-6.826c3.896-1.465,8.496-2.197,13.799-2.197
			c2.51,0,4.941,0.234,7.305,0.693c2.363,0.469,4.189,0.967,5.479,1.504s2.148,1.025,2.578,1.455s0.791,0.977,1.074,1.66
			s0.488,1.504,0.586,2.471C839.902,1581.953,839.951,1583.125,839.951,1584.473z"/>
		<path fill="#FA6060" d="M931.152,1668.379c0,2.793-0.703,4.775-2.109,5.957c-1.396,1.182-2.998,1.777-4.795,1.777h-63.672
			c0,5.371,0.537,10.195,1.621,14.492c1.074,4.297,2.871,7.988,5.391,11.074c2.52,3.076,5.801,5.439,9.824,7.09
			c4.033,1.641,8.965,2.461,14.795,2.461c4.6,0,8.701-0.371,12.305-1.123c3.594-0.752,6.709-1.592,9.336-2.529
			c2.627-0.918,4.785-1.768,6.475-2.52s2.969-1.133,3.838-1.133c0.498,0,0.947,0.137,1.348,0.381
			c0.391,0.254,0.693,0.635,0.918,1.123c0.215,0.508,0.371,1.211,0.479,2.1c0.107,0.898,0.166,1.982,0.166,3.271
			c0,0.938-0.039,1.738-0.107,2.422s-0.166,1.289-0.264,1.826c-0.117,0.537-0.293,1.025-0.547,1.455
			c-0.244,0.43-0.566,0.84-0.957,1.23c-0.4,0.391-1.563,1.035-3.496,1.934s-4.443,1.777-7.52,2.637s-6.641,1.621-10.684,2.305
			c-4.053,0.684-8.369,1.016-12.949,1.016c-7.949,0-14.912-1.113-20.898-3.32c-5.977-2.227-11.006-5.518-15.088-9.883
			c-4.082-4.375-7.158-9.844-9.238-16.445c-2.08-6.582-3.115-14.238-3.115-22.988c0-8.301,1.074-15.762,3.223-22.393
			c2.148-6.621,5.244-12.246,9.297-16.865c4.043-4.619,8.926-8.164,14.658-10.635s12.139-3.701,19.229-3.701
			c7.588,0,14.053,1.211,19.395,3.652c5.332,2.432,9.717,5.703,13.154,9.824s5.967,8.955,7.568,14.502
			c1.621,5.557,2.422,11.475,2.422,17.783V1668.379z M913.32,1663.105c0.215-9.297-1.855-16.602-6.211-21.914
			c-4.365-5.293-10.83-7.949-19.404-7.949c-4.395,0-8.252,0.83-11.563,2.48c-3.32,1.641-6.094,3.828-8.33,6.543
			c-2.227,2.734-3.955,5.898-5.186,9.512c-1.221,3.613-1.904,7.402-2.051,11.328H913.32z"/>
		<path fill="#FA6060" d="M1018.809,1694.59c0,4.941-0.918,9.336-2.734,13.203c-1.836,3.867-4.424,7.129-7.793,9.785
			c-3.369,2.646-7.373,4.648-12.031,6.016c-4.658,1.348-9.775,2.031-15.361,2.031c-3.438,0-6.709-0.264-9.834-0.801
			c-3.105-0.537-5.898-1.221-8.379-2.041c-2.461-0.82-4.561-1.68-6.279-2.578c-1.719-0.889-2.969-1.699-3.76-2.412
			c-0.791-0.723-1.357-1.719-1.719-3.008s-0.537-3.047-0.537-5.273c0-1.348,0.068-2.5,0.215-3.438
			c0.146-0.918,0.322-1.68,0.537-2.246c0.215-0.576,0.518-0.986,0.918-1.24c0.391-0.244,0.84-0.381,1.338-0.381
			c0.791,0,1.953,0.488,3.486,1.455c1.543,0.967,3.438,2.021,5.703,3.174c2.246,1.143,4.922,2.197,7.998,3.164
			s6.621,1.445,10.635,1.445c3.008,0,5.732-0.313,8.164-0.957s4.551-1.602,6.338-2.852s3.174-2.852,4.131-4.785
			c0.977-1.934,1.455-4.219,1.455-6.875c0-2.715-0.693-5-2.1-6.875c-1.387-1.855-3.232-3.496-5.527-4.941
			c-2.295-1.426-4.873-2.695-7.734-3.809s-5.82-2.266-8.867-3.496c-3.037-1.211-6.016-2.588-8.906-4.131
			c-2.91-1.533-5.498-3.418-7.793-5.635c-2.295-2.227-4.141-4.873-5.527-7.949c-1.406-3.086-2.1-6.777-2.1-11.074
			c0-3.789,0.732-7.422,2.197-10.898c1.475-3.477,3.672-6.514,6.611-9.131c2.939-2.607,6.611-4.707,11.006-6.279
			c4.414-1.582,9.551-2.363,15.42-2.363c2.578,0,5.156,0.215,7.734,0.645s4.902,0.957,6.982,1.602s3.848,1.348,5.313,2.1
			c1.475,0.752,2.578,1.416,3.34,1.982c0.742,0.586,1.25,1.074,1.504,1.504c0.244,0.43,0.43,0.918,0.527,1.455
			c0.117,0.537,0.215,1.201,0.332,1.982c0.098,0.801,0.156,1.758,0.156,2.91c0,1.211-0.059,2.266-0.156,3.164
			c-0.117,0.898-0.293,1.631-0.547,2.207c-0.244,0.566-0.547,0.977-0.908,1.23s-0.752,0.371-1.182,0.371
			c-0.645,0-1.572-0.391-2.793-1.172c-1.221-0.791-2.793-1.631-4.727-2.529c-1.934-0.889-4.209-1.729-6.816-2.529
			c-2.617-0.781-5.605-1.172-8.975-1.172c-3.008,0-5.654,0.332-7.949,1.016s-4.17,1.65-5.635,2.9
			c-1.475,1.26-2.578,2.744-3.34,4.463c-0.742,1.719-1.123,3.574-1.123,5.586c0,2.793,0.713,5.137,2.148,7.031s3.291,3.564,5.586,5
			c2.295,1.426,4.902,2.715,7.842,3.867c2.939,1.143,5.928,2.324,8.965,3.535c3.047,1.23,6.055,2.578,9.023,4.082
			c2.979,1.504,5.605,3.34,7.9,5.488s4.131,4.727,5.537,7.734C1018.105,1686.855,1018.809,1690.43,1018.809,1694.59z"/>
		<path fill="#FA6060" d="M1104.854,1694.59c0,4.941-0.908,9.336-2.744,13.203c-1.816,3.867-4.414,7.129-7.783,9.785
			c-3.369,2.646-7.373,4.648-12.031,6.016c-4.658,1.348-9.775,2.031-15.361,2.031c-3.438,0-6.719-0.264-9.824-0.801
			c-3.125-0.537-5.918-1.221-8.379-2.041c-2.48-0.82-4.57-1.68-6.289-2.578c-1.719-0.889-2.969-1.699-3.76-2.412
			c-0.791-0.723-1.357-1.719-1.719-3.008s-0.537-3.047-0.537-5.273c0-1.348,0.068-2.5,0.215-3.438
			c0.146-0.918,0.322-1.68,0.537-2.246c0.215-0.576,0.518-0.986,0.908-1.24c0.4-0.244,0.85-0.381,1.348-0.381
			c0.791,0,1.953,0.488,3.496,1.455c1.533,0.967,3.438,2.021,5.684,3.174c2.266,1.143,4.932,2.197,8.008,3.164
			s6.621,1.445,10.635,1.445c3.008,0,5.732-0.313,8.164-0.957s4.551-1.602,6.338-2.852s3.164-2.852,4.141-4.785
			c0.957-1.934,1.445-4.219,1.445-6.875c0-2.715-0.703-5-2.09-6.875c-1.406-1.855-3.242-3.496-5.537-4.941
			c-2.295-1.426-4.873-2.695-7.734-3.809s-5.82-2.266-8.857-3.496c-3.047-1.211-6.016-2.588-8.926-4.131
			c-2.891-1.533-5.488-3.418-7.783-5.635c-2.295-2.227-4.131-4.873-5.537-7.949c-1.387-3.086-2.09-6.777-2.09-11.074
			c0-3.789,0.732-7.422,2.207-10.898c1.465-3.477,3.662-6.514,6.602-9.131c2.939-2.607,6.602-4.707,11.016-6.279
			c4.395-1.582,9.541-2.363,15.41-2.363c2.578,0,5.156,0.215,7.734,0.645s4.902,0.957,6.982,1.602s3.848,1.348,5.322,2.1
			c1.465,0.752,2.578,1.416,3.32,1.982c0.762,0.586,1.26,1.074,1.504,1.504c0.254,0.43,0.43,0.918,0.547,1.455
			c0.098,0.537,0.215,1.201,0.313,1.982c0.117,0.801,0.166,1.758,0.166,2.91c0,1.211-0.049,2.266-0.166,3.164
			c-0.098,0.898-0.283,1.631-0.527,2.207c-0.254,0.566-0.557,0.977-0.918,1.23s-0.752,0.371-1.182,0.371
			c-0.645,0-1.572-0.391-2.793-1.172c-1.221-0.791-2.793-1.631-4.727-2.529c-1.934-0.889-4.209-1.729-6.826-2.529
			c-2.607-0.781-5.596-1.172-8.965-1.172c-3.008,0-5.654,0.332-7.949,1.016s-4.17,1.65-5.645,2.9
			c-1.465,1.26-2.578,2.744-3.32,4.463c-0.762,1.719-1.133,3.574-1.133,5.586c0,2.793,0.713,5.137,2.148,7.031s3.291,3.564,5.586,5
			c2.295,1.426,4.902,2.715,7.842,3.867c2.939,1.143,5.928,2.324,8.975,3.535c3.037,1.23,6.045,2.578,9.023,4.082
			c2.969,1.504,5.596,3.34,7.891,5.488s4.141,4.727,5.527,7.734C1104.16,1686.855,1104.854,1690.43,1104.854,1694.59z"/>
		<path fill="#FA6060" d="M1149.971,1591.563c0,4.16-0.791,6.992-2.363,8.496s-4.473,2.246-8.701,2.246
			c-4.15,0-7.002-0.723-8.535-2.197c-1.543-1.465-2.314-4.248-2.314-8.33c0-4.141,0.791-6.973,2.363-8.477s4.473-2.266,8.701-2.266
			c4.15,0,7.002,0.742,8.535,2.207C1149.199,1584.707,1149.971,1587.48,1149.971,1591.563z M1147.93,1720.898
			c0,0.586-0.146,1.064-0.43,1.455c-0.283,0.4-0.752,0.732-1.396,1.025c-0.645,0.273-1.543,0.488-2.686,0.645
			c-1.143,0.137-2.617,0.215-4.404,0.215c-1.719,0-3.154-0.078-4.297-0.215c-1.143-0.156-2.061-0.371-2.744-0.645
			c-0.674-0.293-1.143-0.625-1.387-1.025c-0.254-0.391-0.381-0.869-0.381-1.455v-96.68c0-0.488,0.127-0.957,0.381-1.387
			c0.244-0.43,0.713-0.791,1.387-1.074c0.684-0.293,1.602-0.508,2.744-0.645c1.143-0.146,2.578-0.215,4.297-0.215
			c1.787,0,3.262,0.068,4.404,0.215c1.143,0.137,2.041,0.352,2.686,0.645c0.645,0.283,1.113,0.645,1.396,1.074
			s0.43,0.898,0.43,1.387V1720.898z"/>
		<path fill="#FA6060" d="M1270.605,1671.484c0,7.891-1.035,15.137-3.115,21.758s-5.176,12.344-9.287,17.129
			c-4.121,4.805-9.277,8.545-15.469,11.23c-6.201,2.686-13.379,4.023-21.543,4.023c-7.949,0-14.883-1.172-20.781-3.535
			c-5.918-2.363-10.84-5.801-14.775-10.313s-6.875-10-8.809-16.445s-2.9-13.75-2.9-21.914c0-7.871,1.016-15.117,3.066-21.748
			c2.031-6.621,5.117-12.334,9.238-17.139c4.111-4.785,9.248-8.516,15.41-11.172c6.162-2.637,13.359-3.965,21.592-3.965
			c7.949,0,14.873,1.172,20.791,3.535c5.898,2.363,10.83,5.801,14.766,10.313s6.895,10,8.867,16.445
			C1269.619,1656.133,1270.605,1663.398,1270.605,1671.484z M1252.236,1672.676c0-5.234-0.488-10.176-1.465-14.824
			c-0.977-4.658-2.588-8.74-4.824-12.246c-2.236-3.516-5.273-6.289-9.102-8.33s-8.604-3.057-14.307-3.057
			c-5.283,0-9.814,0.928-13.604,2.793c-3.799,1.855-6.924,4.492-9.375,7.891c-2.461,3.398-4.287,7.432-5.479,12.09
			c-1.191,4.648-1.787,9.736-1.787,15.254c0,5.293,0.488,10.273,1.465,14.922c0.977,4.668,2.598,8.73,4.873,12.197
			c2.275,3.477,5.332,6.23,9.16,8.271s8.604,3.066,14.307,3.066c5.205,0,9.717-0.938,13.555-2.793
			c3.828-1.865,6.973-4.473,9.424-7.852c2.461-3.359,4.268-7.363,5.42-12.031C1251.66,1683.379,1252.236,1678.262,1252.236,1672.676
			z"/>
		<path fill="#FA6060" d="M1379.961,1720.898c0,0.586-0.146,1.064-0.43,1.455c-0.283,0.4-0.752,0.732-1.396,1.025
			c-0.645,0.273-1.543,0.488-2.686,0.645c-1.143,0.137-2.578,0.215-4.297,0.215c-1.787,0-3.262-0.078-4.404-0.215
			c-1.143-0.156-2.041-0.371-2.686-0.645c-0.645-0.293-1.113-0.625-1.396-1.025c-0.283-0.391-0.43-0.869-0.43-1.455v-56.602
			c0-5.518-0.43-9.961-1.289-13.32c-0.859-3.369-2.109-6.27-3.76-8.711c-1.65-2.422-3.779-4.297-6.387-5.586
			c-2.617-1.289-5.645-1.934-9.082-1.934c-4.443,0-8.877,1.582-13.32,4.727c-4.443,3.164-9.092,7.773-13.965,13.867v67.559
			c0,0.586-0.146,1.064-0.43,1.455c-0.283,0.4-0.752,0.732-1.396,1.025c-0.645,0.273-1.543,0.488-2.686,0.645
			c-1.143,0.137-2.617,0.215-4.404,0.215c-1.719,0-3.154-0.078-4.297-0.215c-1.143-0.156-2.061-0.371-2.744-0.645
			c-0.674-0.293-1.143-0.625-1.387-1.025c-0.254-0.391-0.381-0.869-0.381-1.455v-96.68c0-0.566,0.107-1.055,0.322-1.445
			s0.645-0.752,1.289-1.074s1.465-0.537,2.471-0.645s2.324-0.156,3.975-0.156c1.572,0,2.881,0.049,3.926,0.156
			c1.035,0.107,1.836,0.322,2.412,0.645s0.986,0.684,1.24,1.074c0.244,0.391,0.371,0.879,0.371,1.445v12.793
			c5.439-6.094,10.869-10.547,16.27-13.379c5.41-2.832,10.869-4.238,16.387-4.238c6.445,0,11.875,1.094,16.27,3.271
			c4.414,2.188,7.969,5.107,10.693,8.76s4.678,7.93,5.85,12.832c1.191,4.902,1.777,10.801,1.777,17.676V1720.898z"/>
		<path fill="#FA6060" d="M1485.127,1721.016c0,0.859-0.283,1.504-0.859,1.934s-1.357,0.742-2.363,0.957s-2.471,0.332-4.404,0.332
			c-1.865,0-3.35-0.117-4.453-0.332c-1.113-0.215-1.924-0.527-2.422-0.957s-0.752-1.074-0.752-1.934v-9.668
			c-4.229,4.512-8.936,8.018-14.131,10.527c-5.186,2.5-10.684,3.75-16.484,3.75c-5.088,0-9.688-0.664-13.809-1.982
			c-4.111-1.318-7.617-3.232-10.527-5.752c-2.891-2.5-5.156-5.586-6.758-9.238c-1.621-3.652-2.422-7.793-2.422-12.461
			c0-5.43,1.113-10.156,3.33-14.18c2.217-4.004,5.41-7.334,9.561-9.98c4.15-2.656,9.238-4.639,15.254-5.967
			c6.016-1.318,12.783-1.982,20.303-1.982h13.32v-7.52c0-3.73-0.391-7.021-1.182-9.883c-0.791-2.871-2.061-5.254-3.809-7.148
			c-1.758-1.895-4.033-3.33-6.826-4.297s-6.23-1.445-10.313-1.445c-4.365,0-8.291,0.518-11.768,1.553
			c-3.467,1.045-6.514,2.188-9.121,3.438c-2.617,1.26-4.805,2.402-6.563,3.438c-1.748,1.045-3.057,1.553-3.916,1.553
			c-0.576,0-1.074-0.137-1.504-0.43c-0.43-0.273-0.811-0.703-1.123-1.289c-0.332-0.566-0.557-1.299-0.703-2.197
			c-0.146-0.889-0.215-1.885-0.215-2.959c0-1.777,0.127-3.203,0.371-4.238c0.254-1.035,0.859-2.021,1.836-2.949
			c0.957-0.938,2.627-2.031,4.99-3.281s5.088-2.402,8.164-3.438s6.445-1.895,10.098-2.578s7.344-1.016,11.064-1.016
			c6.943,0,12.852,0.781,17.725,2.363c4.873,1.572,8.809,3.887,11.816,6.924c3.008,3.047,5.195,6.826,6.553,11.338
			s2.041,9.766,2.041,15.781V1721.016z M1467.51,1676.855h-15.146c-4.873,0-9.092,0.42-12.676,1.24
			c-3.584,0.83-6.553,2.041-8.916,3.652s-4.102,3.545-5.205,5.801c-1.113,2.256-1.67,4.854-1.67,7.783
			c0,5.02,1.592,9.014,4.775,11.982c3.193,2.979,7.646,4.463,13.379,4.463c4.658,0,8.965-1.191,12.949-3.555
			c3.965-2.363,8.145-5.977,12.51-10.84V1676.855z"/>
		<path fill="#FA6060" d="M1535.4,1720.898c0,0.586-0.146,1.064-0.43,1.455c-0.283,0.4-0.752,0.732-1.396,1.025
			c-0.645,0.273-1.543,0.488-2.686,0.645c-1.143,0.137-2.617,0.215-4.404,0.215c-1.719,0-3.154-0.078-4.297-0.215
			c-1.143-0.156-2.061-0.371-2.734-0.645c-0.684-0.293-1.152-0.625-1.406-1.025c-0.244-0.391-0.371-0.869-0.371-1.455v-143.516
			c0-0.566,0.127-1.074,0.371-1.504c0.254-0.43,0.723-0.781,1.406-1.074c0.674-0.273,1.592-0.488,2.734-0.645
			c1.143-0.137,2.578-0.215,4.297-0.215c1.787,0,3.262,0.078,4.404,0.215c1.143,0.156,2.041,0.371,2.686,0.645
			c0.645,0.293,1.113,0.645,1.396,1.074s0.43,0.938,0.43,1.504V1720.898z"/>
	</g>
</g>
</svg>
